ISO-10303-21;
HEADER;
/* Generated by software containing ST-Developer
 * from STEP Tools, Inc. (www.steptools.com) 
 */
/* OPTION: using custom renumber hook */

FILE_DESCRIPTION(
/* description */ ('STEP AP242 Edition 2',
'CAx-IF Rec.Pracs.---Representation and Presentation of Product Manufa
cturing Information (PMI)---4.0---2014-10-13',
'CAx-IF Rec.Pracs.---3D Tessellated Geometry---0.4---2014-09-14','2;1',
'CAx-IF Rec.Pracs.---User Defined Attributes---1.5---2016-08-15'),
/* implementation_level */ '2;1');

FILE_NAME(
/* name */ '3D_PCB1_2026-05-26 - BottomCase',
/* time_stamp */ '2026-06-01T14:30:56Z',
/* author */ (''),
/* organization */ (''),
/* preprocessor_version */ 'ST-DEVELOPER v20',
/* originating_system */ 'ONSHAPE BY PTC INC, 1.215',
/* authorisation */ '  ');

FILE_SCHEMA (('AP242_MANAGED_MODEL_BASED_3D_ENGINEERING_MIM_LF { 1 0 10303 442 3 1 4 }'));
ENDSEC;

DATA;
#10=SHAPE_REPRESENTATION_RELATIONSHIP('','',#636,#11);
#11=ADVANCED_BREP_SHAPE_REPRESENTATION('',(#634),#1057);
#12=CYLINDRICAL_SURFACE('',#646,0.002);
#13=CYLINDRICAL_SURFACE('',#649,0.002);
#14=CYLINDRICAL_SURFACE('',#653,0.002);
#15=CYLINDRICAL_SURFACE('',#657,0.002);
#16=CYLINDRICAL_SURFACE('',#664,0.002);
#17=CYLINDRICAL_SURFACE('',#672,0.002);
#18=CYLINDRICAL_SURFACE('',#676,0.002);
#19=CYLINDRICAL_SURFACE('',#682,0.00125);
#20=CYLINDRICAL_SURFACE('',#683,0.00125);
#21=CYLINDRICAL_SURFACE('',#684,0.00125);
#22=LINE('',#889,#78);
#23=LINE('',#893,#79);
#24=LINE('',#899,#80);
#25=LINE('',#903,#81);
#26=LINE('',#904,#82);
#27=LINE('',#907,#83);
#28=LINE('',#909,#84);
#29=LINE('',#911,#85);
#30=LINE('',#912,#86);
#31=LINE('',#915,#87);
#32=LINE('',#917,#88);
#33=LINE('',#919,#89);
#34=LINE('',#920,#90);
#35=LINE('',#923,#91);
#36=LINE('',#925,#92);
#37=LINE('',#927,#93);
#38=LINE('',#929,#94);
#39=LINE('',#931,#95);
#40=LINE('',#933,#96);
#41=LINE('',#937,#97);
#42=LINE('',#939,#98);
#43=LINE('',#941,#99);
#44=LINE('',#945,#100);
#45=LINE('',#949,#101);
#46=LINE('',#951,#102);
#47=LINE('',#952,#103);
#48=LINE('',#954,#104);
#49=LINE('',#960,#105);
#50=LINE('',#962,#106);
#51=LINE('',#964,#107);
#52=LINE('',#965,#108);
#53=LINE('',#967,#109);
#54=LINE('',#1006,#110);
#55=LINE('',#1008,#111);
#56=LINE('',#1010,#112);
#57=LINE('',#1012,#113);
#58=LINE('',#1014,#114);
#59=LINE('',#1016,#115);
#60=LINE('',#1018,#116);
#61=LINE('',#1020,#117);
#62=LINE('',#1023,#118);
#63=LINE('',#1025,#119);
#64=LINE('',#1027,#120);
#65=LINE('',#1029,#121);
#66=LINE('',#1031,#122);
#67=LINE('',#1033,#123);
#68=LINE('',#1035,#124);
#69=LINE('',#1037,#125);
#70=LINE('',#1040,#126);
#71=LINE('',#1042,#127);
#72=LINE('',#1044,#128);
#73=LINE('',#1046,#129);
#74=LINE('',#1048,#130);
#75=LINE('',#1050,#131);
#76=LINE('',#1052,#132);
#77=LINE('',#1054,#133);
#78=VECTOR('',#708,1.);
#79=VECTOR('',#711,1.);
#80=VECTOR('',#716,1.);
#81=VECTOR('',#719,1.);
#82=VECTOR('',#720,1.);
#83=VECTOR('',#721,1.);
#84=VECTOR('',#722,1.);
#85=VECTOR('',#723,1.);
#86=VECTOR('',#724,1.);
#87=VECTOR('',#725,1.);
#88=VECTOR('',#726,1.);
#89=VECTOR('',#727,1.);
#90=VECTOR('',#728,1.);
#91=VECTOR('',#729,1.);
#92=VECTOR('',#730,1.);
#93=VECTOR('',#731,1.);
#94=VECTOR('',#734,1.);
#95=VECTOR('',#735,1.);
#96=VECTOR('',#736,1.);
#97=VECTOR('',#741,1.);
#98=VECTOR('',#744,1.);
#99=VECTOR('',#745,1.);
#100=VECTOR('',#750,1.);
#101=VECTOR('',#755,1.);
#102=VECTOR('',#756,1.);
#103=VECTOR('',#757,1.);
#104=VECTOR('',#758,1.);
#105=VECTOR('',#765,1.);
#106=VECTOR('',#768,1.);
#107=VECTOR('',#769,1.);
#108=VECTOR('',#770,1.);
#109=VECTOR('',#771,1.);
#110=VECTOR('',#830,1.);
#111=VECTOR('',#831,1.);
#112=VECTOR('',#832,1.);
#113=VECTOR('',#835,1.);
#114=VECTOR('',#836,1.);
#115=VECTOR('',#839,1.);
#116=VECTOR('',#840,1.);
#117=VECTOR('',#843,1.);
#118=VECTOR('',#848,1.);
#119=VECTOR('',#849,1.);
#120=VECTOR('',#850,1.);
#121=VECTOR('',#853,1.);
#122=VECTOR('',#854,1.);
#123=VECTOR('',#857,1.);
#124=VECTOR('',#858,1.);
#125=VECTOR('',#861,1.);
#126=VECTOR('',#866,1.);
#127=VECTOR('',#867,1.);
#128=VECTOR('',#868,1.);
#129=VECTOR('',#871,1.);
#130=VECTOR('',#872,1.);
#131=VECTOR('',#875,1.);
#132=VECTOR('',#876,1.);
#133=VECTOR('',#879,1.);
#134=ORIENTED_EDGE('',*,*,#296,.F.);
#135=ORIENTED_EDGE('',*,*,#297,.T.);
#136=ORIENTED_EDGE('',*,*,#298,.T.);
#137=ORIENTED_EDGE('',*,*,#299,.T.);
#138=ORIENTED_EDGE('',*,*,#300,.T.);
#139=ORIENTED_EDGE('',*,*,#301,.T.);
#140=ORIENTED_EDGE('',*,*,#302,.F.);
#141=ORIENTED_EDGE('',*,*,#303,.F.);
#142=ORIENTED_EDGE('',*,*,#304,.F.);
#143=ORIENTED_EDGE('',*,*,#305,.F.);
#144=ORIENTED_EDGE('',*,*,#306,.F.);
#145=ORIENTED_EDGE('',*,*,#307,.T.);
#146=ORIENTED_EDGE('',*,*,#308,.T.);
#147=ORIENTED_EDGE('',*,*,#309,.F.);
#148=ORIENTED_EDGE('',*,*,#310,.F.);
#149=ORIENTED_EDGE('',*,*,#311,.T.);
#150=ORIENTED_EDGE('',*,*,#312,.T.);
#151=ORIENTED_EDGE('',*,*,#313,.F.);
#152=ORIENTED_EDGE('',*,*,#314,.F.);
#153=ORIENTED_EDGE('',*,*,#315,.T.);
#154=ORIENTED_EDGE('',*,*,#316,.T.);
#155=ORIENTED_EDGE('',*,*,#317,.F.);
#156=ORIENTED_EDGE('',*,*,#298,.F.);
#157=ORIENTED_EDGE('',*,*,#318,.F.);
#158=ORIENTED_EDGE('',*,*,#319,.T.);
#159=ORIENTED_EDGE('',*,*,#320,.T.);
#160=ORIENTED_EDGE('',*,*,#299,.F.);
#161=ORIENTED_EDGE('',*,*,#320,.F.);
#162=ORIENTED_EDGE('',*,*,#321,.T.);
#163=ORIENTED_EDGE('',*,*,#322,.T.);
#164=ORIENTED_EDGE('',*,*,#300,.F.);
#165=ORIENTED_EDGE('',*,*,#322,.F.);
#166=ORIENTED_EDGE('',*,*,#323,.T.);
#167=ORIENTED_EDGE('',*,*,#324,.T.);
#168=ORIENTED_EDGE('',*,*,#301,.F.);
#169=ORIENTED_EDGE('',*,*,#324,.F.);
#170=ORIENTED_EDGE('',*,*,#325,.T.);
#171=ORIENTED_EDGE('',*,*,#326,.T.);
#172=ORIENTED_EDGE('',*,*,#327,.F.);
#173=ORIENTED_EDGE('',*,*,#328,.T.);
#174=ORIENTED_EDGE('',*,*,#303,.T.);
#175=ORIENTED_EDGE('',*,*,#329,.T.);
#176=ORIENTED_EDGE('',*,*,#326,.F.);
#177=ORIENTED_EDGE('',*,*,#330,.F.);
#178=ORIENTED_EDGE('',*,*,#331,.T.);
#179=ORIENTED_EDGE('',*,*,#332,.F.);
#180=ORIENTED_EDGE('',*,*,#331,.F.);
#181=ORIENTED_EDGE('',*,*,#333,.T.);
#182=ORIENTED_EDGE('',*,*,#334,.T.);
#183=ORIENTED_EDGE('',*,*,#335,.T.);
#184=ORIENTED_EDGE('',*,*,#305,.T.);
#185=ORIENTED_EDGE('',*,*,#336,.T.);
#186=ORIENTED_EDGE('',*,*,#334,.F.);
#187=ORIENTED_EDGE('',*,*,#337,.F.);
#188=ORIENTED_EDGE('',*,*,#338,.T.);
#189=ORIENTED_EDGE('',*,*,#339,.F.);
#190=ORIENTED_EDGE('',*,*,#338,.F.);
#191=ORIENTED_EDGE('',*,*,#340,.T.);
#192=ORIENTED_EDGE('',*,*,#318,.T.);
#193=ORIENTED_EDGE('',*,*,#297,.F.);
#194=ORIENTED_EDGE('',*,*,#341,.F.);
#195=ORIENTED_EDGE('',*,*,#342,.F.);
#196=ORIENTED_EDGE('',*,*,#343,.F.);
#197=ORIENTED_EDGE('',*,*,#319,.F.);
#198=ORIENTED_EDGE('',*,*,#340,.F.);
#199=ORIENTED_EDGE('',*,*,#337,.T.);
#200=ORIENTED_EDGE('',*,*,#333,.F.);
#201=ORIENTED_EDGE('',*,*,#330,.T.);
#202=ORIENTED_EDGE('',*,*,#325,.F.);
#203=ORIENTED_EDGE('',*,*,#323,.F.);
#204=ORIENTED_EDGE('',*,*,#321,.F.);
#205=ORIENTED_EDGE('',*,*,#344,.F.);
#206=ORIENTED_EDGE('',*,*,#304,.T.);
#207=ORIENTED_EDGE('',*,*,#345,.T.);
#208=ORIENTED_EDGE('',*,*,#346,.T.);
#209=ORIENTED_EDGE('',*,*,#344,.T.);
#210=ORIENTED_EDGE('',*,*,#328,.F.);
#211=ORIENTED_EDGE('',*,*,#332,.T.);
#212=ORIENTED_EDGE('',*,*,#336,.F.);
#213=ORIENTED_EDGE('',*,*,#345,.F.);
#214=ORIENTED_EDGE('',*,*,#347,.F.);
#215=ORIENTED_EDGE('',*,*,#327,.T.);
#216=ORIENTED_EDGE('',*,*,#329,.F.);
#217=ORIENTED_EDGE('',*,*,#348,.F.);
#218=ORIENTED_EDGE('',*,*,#302,.T.);
#219=ORIENTED_EDGE('',*,*,#347,.T.);
#220=ORIENTED_EDGE('',*,*,#349,.T.);
#221=ORIENTED_EDGE('',*,*,#348,.T.);
#222=ORIENTED_EDGE('',*,*,#350,.F.);
#223=ORIENTED_EDGE('',*,*,#351,.T.);
#224=ORIENTED_EDGE('',*,*,#296,.T.);
#225=ORIENTED_EDGE('',*,*,#352,.T.);
#226=ORIENTED_EDGE('',*,*,#350,.T.);
#227=ORIENTED_EDGE('',*,*,#335,.F.);
#228=ORIENTED_EDGE('',*,*,#339,.T.);
#229=ORIENTED_EDGE('',*,*,#351,.F.);
#230=ORIENTED_EDGE('',*,*,#352,.F.);
#231=ORIENTED_EDGE('',*,*,#341,.T.);
#232=ORIENTED_EDGE('',*,*,#349,.F.);
#233=ORIENTED_EDGE('',*,*,#342,.T.);
#234=ORIENTED_EDGE('',*,*,#346,.F.);
#235=ORIENTED_EDGE('',*,*,#343,.T.);
#236=ORIENTED_EDGE('',*,*,#307,.F.);
#237=ORIENTED_EDGE('',*,*,#353,.F.);
#238=ORIENTED_EDGE('',*,*,#354,.T.);
#239=ORIENTED_EDGE('',*,*,#355,.T.);
#240=ORIENTED_EDGE('',*,*,#306,.T.);
#241=ORIENTED_EDGE('',*,*,#356,.F.);
#242=ORIENTED_EDGE('',*,*,#357,.F.);
#243=ORIENTED_EDGE('',*,*,#353,.T.);
#244=ORIENTED_EDGE('',*,*,#309,.T.);
#245=ORIENTED_EDGE('',*,*,#358,.F.);
#246=ORIENTED_EDGE('',*,*,#359,.F.);
#247=ORIENTED_EDGE('',*,*,#356,.T.);
#248=ORIENTED_EDGE('',*,*,#308,.F.);
#249=ORIENTED_EDGE('',*,*,#355,.F.);
#250=ORIENTED_EDGE('',*,*,#360,.T.);
#251=ORIENTED_EDGE('',*,*,#358,.T.);
#252=ORIENTED_EDGE('',*,*,#354,.F.);
#253=ORIENTED_EDGE('',*,*,#357,.T.);
#254=ORIENTED_EDGE('',*,*,#359,.T.);
#255=ORIENTED_EDGE('',*,*,#360,.F.);
#256=ORIENTED_EDGE('',*,*,#311,.F.);
#257=ORIENTED_EDGE('',*,*,#361,.F.);
#258=ORIENTED_EDGE('',*,*,#362,.T.);
#259=ORIENTED_EDGE('',*,*,#363,.T.);
#260=ORIENTED_EDGE('',*,*,#310,.T.);
#261=ORIENTED_EDGE('',*,*,#364,.F.);
#262=ORIENTED_EDGE('',*,*,#365,.F.);
#263=ORIENTED_EDGE('',*,*,#361,.T.);
#264=ORIENTED_EDGE('',*,*,#313,.T.);
#265=ORIENTED_EDGE('',*,*,#366,.F.);
#266=ORIENTED_EDGE('',*,*,#367,.F.);
#267=ORIENTED_EDGE('',*,*,#364,.T.);
#268=ORIENTED_EDGE('',*,*,#312,.F.);
#269=ORIENTED_EDGE('',*,*,#363,.F.);
#270=ORIENTED_EDGE('',*,*,#368,.T.);
#271=ORIENTED_EDGE('',*,*,#366,.T.);
#272=ORIENTED_EDGE('',*,*,#362,.F.);
#273=ORIENTED_EDGE('',*,*,#365,.T.);
#274=ORIENTED_EDGE('',*,*,#367,.T.);
#275=ORIENTED_EDGE('',*,*,#368,.F.);
#276=ORIENTED_EDGE('',*,*,#315,.F.);
#277=ORIENTED_EDGE('',*,*,#369,.F.);
#278=ORIENTED_EDGE('',*,*,#370,.T.);
#279=ORIENTED_EDGE('',*,*,#371,.T.);
#280=ORIENTED_EDGE('',*,*,#314,.T.);
#281=ORIENTED_EDGE('',*,*,#372,.F.);
#282=ORIENTED_EDGE('',*,*,#373,.F.);
#283=ORIENTED_EDGE('',*,*,#369,.T.);
#284=ORIENTED_EDGE('',*,*,#317,.T.);
#285=ORIENTED_EDGE('',*,*,#374,.F.);
#286=ORIENTED_EDGE('',*,*,#375,.F.);
#287=ORIENTED_EDGE('',*,*,#372,.T.);
#288=ORIENTED_EDGE('',*,*,#316,.F.);
#289=ORIENTED_EDGE('',*,*,#371,.F.);
#290=ORIENTED_EDGE('',*,*,#376,.T.);
#291=ORIENTED_EDGE('',*,*,#374,.T.);
#292=ORIENTED_EDGE('',*,*,#370,.F.);
#293=ORIENTED_EDGE('',*,*,#373,.T.);
#294=ORIENTED_EDGE('',*,*,#375,.T.);
#295=ORIENTED_EDGE('',*,*,#376,.F.);
#296=EDGE_CURVE('',#377,#378,#432,.T.);
#297=EDGE_CURVE('',#377,#379,#433,.T.);
#298=EDGE_CURVE('',#379,#380,#22,.T.);
#299=EDGE_CURVE('',#380,#381,#434,.T.);
#300=EDGE_CURVE('',#381,#382,#23,.T.);
#301=EDGE_CURVE('',#382,#383,#435,.T.);
#302=EDGE_CURVE('',#384,#383,#436,.T.);
#303=EDGE_CURVE('',#385,#384,#24,.T.);
#304=EDGE_CURVE('',#386,#385,#437,.T.);
#305=EDGE_CURVE('',#378,#386,#25,.T.);
#306=EDGE_CURVE('',#387,#388,#26,.T.);
#307=EDGE_CURVE('',#387,#389,#27,.T.);
#308=EDGE_CURVE('',#389,#390,#28,.T.);
#309=EDGE_CURVE('',#388,#390,#29,.T.);
#310=EDGE_CURVE('',#391,#392,#30,.T.);
#311=EDGE_CURVE('',#391,#393,#31,.T.);
#312=EDGE_CURVE('',#393,#394,#32,.T.);
#313=EDGE_CURVE('',#392,#394,#33,.T.);
#314=EDGE_CURVE('',#395,#396,#34,.T.);
#315=EDGE_CURVE('',#395,#397,#35,.T.);
#316=EDGE_CURVE('',#397,#398,#36,.T.);
#317=EDGE_CURVE('',#396,#398,#37,.T.);
#318=EDGE_CURVE('',#399,#379,#38,.T.);
#319=EDGE_CURVE('',#399,#400,#39,.T.);
#320=EDGE_CURVE('',#400,#380,#40,.T.);
#321=EDGE_CURVE('',#400,#401,#438,.T.);
#322=EDGE_CURVE('',#401,#381,#41,.T.);
#323=EDGE_CURVE('',#401,#402,#42,.T.);
#324=EDGE_CURVE('',#402,#382,#43,.T.);
#325=EDGE_CURVE('',#402,#403,#439,.T.);
#326=EDGE_CURVE('',#403,#404,#44,.T.);
#327=EDGE_CURVE('',#383,#404,#440,.T.);
#328=EDGE_CURVE('',#405,#385,#45,.T.);
#329=EDGE_CURVE('',#384,#404,#46,.T.);
#330=EDGE_CURVE('',#406,#403,#47,.T.);
#331=EDGE_CURVE('',#406,#405,#48,.T.);
#332=EDGE_CURVE('',#405,#407,#441,.T.);
#333=EDGE_CURVE('',#406,#408,#442,.T.);
#334=EDGE_CURVE('',#408,#407,#49,.T.);
#335=EDGE_CURVE('',#409,#378,#50,.T.);
#336=EDGE_CURVE('',#386,#407,#51,.T.);
#337=EDGE_CURVE('',#410,#408,#52,.T.);
#338=EDGE_CURVE('',#410,#409,#53,.T.);
#339=EDGE_CURVE('',#409,#377,#443,.T.);
#340=EDGE_CURVE('',#410,#399,#444,.T.);
#341=EDGE_CURVE('',#411,#411,#445,.F.);
#342=EDGE_CURVE('',#412,#412,#446,.F.);
#343=EDGE_CURVE('',#413,#413,#447,.F.);
#344=EDGE_CURVE('',#414,#414,#448,.T.);
#345=EDGE_CURVE('',#385,#386,#449,.T.);
#346=EDGE_CURVE('',#415,#415,#450,.T.);
#347=EDGE_CURVE('',#383,#384,#451,.T.);
#348=EDGE_CURVE('',#416,#416,#452,.T.);
#349=EDGE_CURVE('',#417,#417,#453,.T.);
#350=EDGE_CURVE('',#418,#418,#454,.T.);
#351=EDGE_CURVE('',#378,#377,#455,.T.);
#352=EDGE_CURVE('',#419,#419,#456,.T.);
#353=EDGE_CURVE('',#420,#387,#54,.T.);
#354=EDGE_CURVE('',#420,#421,#55,.T.);
#355=EDGE_CURVE('',#421,#389,#56,.T.);
#356=EDGE_CURVE('',#422,#388,#57,.T.);
#357=EDGE_CURVE('',#420,#422,#58,.T.);
#358=EDGE_CURVE('',#423,#390,#59,.T.);
#359=EDGE_CURVE('',#422,#423,#60,.T.);
#360=EDGE_CURVE('',#421,#423,#61,.T.);
#361=EDGE_CURVE('',#424,#391,#62,.T.);
#362=EDGE_CURVE('',#424,#425,#63,.T.);
#363=EDGE_CURVE('',#425,#393,#64,.T.);
#364=EDGE_CURVE('',#426,#392,#65,.T.);
#365=EDGE_CURVE('',#424,#426,#66,.T.);
#366=EDGE_CURVE('',#427,#394,#67,.T.);
#367=EDGE_CURVE('',#426,#427,#68,.T.);
#368=EDGE_CURVE('',#425,#427,#69,.T.);
#369=EDGE_CURVE('',#428,#395,#70,.T.);
#370=EDGE_CURVE('',#428,#429,#71,.T.);
#371=EDGE_CURVE('',#429,#397,#72,.T.);
#372=EDGE_CURVE('',#430,#396,#73,.T.);
#373=EDGE_CURVE('',#428,#430,#74,.T.);
#374=EDGE_CURVE('',#431,#398,#75,.T.);
#375=EDGE_CURVE('',#430,#431,#76,.T.);
#376=EDGE_CURVE('',#429,#431,#77,.T.);
#377=VERTEX_POINT('',#885);
#378=VERTEX_POINT('',#886);
#379=VERTEX_POINT('',#888);
#380=VERTEX_POINT('',#890);
#381=VERTEX_POINT('',#892);
#382=VERTEX_POINT('',#894);
#383=VERTEX_POINT('',#896);
#384=VERTEX_POINT('',#898);
#385=VERTEX_POINT('',#900);
#386=VERTEX_POINT('',#902);
#387=VERTEX_POINT('',#905);
#388=VERTEX_POINT('',#906);
#389=VERTEX_POINT('',#908);
#390=VERTEX_POINT('',#910);
#391=VERTEX_POINT('',#913);
#392=VERTEX_POINT('',#914);
#393=VERTEX_POINT('',#916);
#394=VERTEX_POINT('',#918);
#395=VERTEX_POINT('',#921);
#396=VERTEX_POINT('',#922);
#397=VERTEX_POINT('',#924);
#398=VERTEX_POINT('',#926);
#399=VERTEX_POINT('',#930);
#400=VERTEX_POINT('',#932);
#401=VERTEX_POINT('',#936);
#402=VERTEX_POINT('',#940);
#403=VERTEX_POINT('',#944);
#404=VERTEX_POINT('',#946);
#405=VERTEX_POINT('',#950);
#406=VERTEX_POINT('',#953);
#407=VERTEX_POINT('',#957);
#408=VERTEX_POINT('',#959);
#409=VERTEX_POINT('',#963);
#410=VERTEX_POINT('',#966);
#411=VERTEX_POINT('',#973);
#412=VERTEX_POINT('',#975);
#413=VERTEX_POINT('',#977);
#414=VERTEX_POINT('',#980);
#415=VERTEX_POINT('',#984);
#416=VERTEX_POINT('',#990);
#417=VERTEX_POINT('',#993);
#418=VERTEX_POINT('',#996);
#419=VERTEX_POINT('',#1000);
#420=VERTEX_POINT('',#1007);
#421=VERTEX_POINT('',#1009);
#422=VERTEX_POINT('',#1013);
#423=VERTEX_POINT('',#1017);
#424=VERTEX_POINT('',#1024);
#425=VERTEX_POINT('',#1026);
#426=VERTEX_POINT('',#1030);
#427=VERTEX_POINT('',#1034);
#428=VERTEX_POINT('',#1041);
#429=VERTEX_POINT('',#1043);
#430=VERTEX_POINT('',#1047);
#431=VERTEX_POINT('',#1051);
#432=CIRCLE('',#639,0.002);
#433=CIRCLE('',#640,0.002);
#434=CIRCLE('',#641,0.002);
#435=CIRCLE('',#642,0.002);
#436=CIRCLE('',#643,0.002);
#437=CIRCLE('',#644,0.002);
#438=CIRCLE('',#647,0.002);
#439=CIRCLE('',#650,0.002);
#440=CIRCLE('',#651,0.002);
#441=CIRCLE('',#654,0.002);
#442=CIRCLE('',#655,0.002);
#443=CIRCLE('',#658,0.002);
#444=CIRCLE('',#659,0.002);
#445=CIRCLE('',#661,0.00125);
#446=CIRCLE('',#662,0.00125);
#447=CIRCLE('',#663,0.00125);
#448=CIRCLE('',#665,0.002);
#449=CIRCLE('',#666,0.002);
#450=CIRCLE('',#668,0.00125);
#451=CIRCLE('',#671,0.002);
#452=CIRCLE('',#673,0.002);
#453=CIRCLE('',#675,0.00125);
#454=CIRCLE('',#677,0.002);
#455=CIRCLE('',#678,0.002);
#456=CIRCLE('',#680,0.00125);
#457=EDGE_LOOP('',(#134,#135,#136,#137,#138,#139,#140,#141,#142,#143));
#458=EDGE_LOOP('',(#144,#145,#146,#147));
#459=EDGE_LOOP('',(#148,#149,#150,#151));
#460=EDGE_LOOP('',(#152,#153,#154,#155));
#461=EDGE_LOOP('',(#156,#157,#158,#159));
#462=EDGE_LOOP('',(#160,#161,#162,#163));
#463=EDGE_LOOP('',(#164,#165,#166,#167));
#464=EDGE_LOOP('',(#168,#169,#170,#171,#172));
#465=EDGE_LOOP('',(#173,#174,#175,#176,#177,#178));
#466=EDGE_LOOP('',(#179,#180,#181,#182));
#467=EDGE_LOOP('',(#183,#184,#185,#186,#187,#188));
#468=EDGE_LOOP('',(#189,#190,#191,#192,#193));
#469=EDGE_LOOP('',(#194));
#470=EDGE_LOOP('',(#195));
#471=EDGE_LOOP('',(#196));
#472=EDGE_LOOP('',(#197,#198,#199,#200,#201,#202,#203,#204));
#473=EDGE_LOOP('',(#205));
#474=EDGE_LOOP('',(#206,#207));
#475=EDGE_LOOP('',(#208));
#476=EDGE_LOOP('',(#209));
#477=EDGE_LOOP('',(#210,#211,#212,#213));
#478=EDGE_LOOP('',(#214,#215,#216));
#479=EDGE_LOOP('',(#217));
#480=EDGE_LOOP('',(#218,#219));
#481=EDGE_LOOP('',(#220));
#482=EDGE_LOOP('',(#221));
#483=EDGE_LOOP('',(#222));
#484=EDGE_LOOP('',(#223,#224));
#485=EDGE_LOOP('',(#225));
#486=EDGE_LOOP('',(#226));
#487=EDGE_LOOP('',(#227,#228,#229));
#488=EDGE_LOOP('',(#230));
#489=EDGE_LOOP('',(#231));
#490=EDGE_LOOP('',(#232));
#491=EDGE_LOOP('',(#233));
#492=EDGE_LOOP('',(#234));
#493=EDGE_LOOP('',(#235));
#494=EDGE_LOOP('',(#236,#237,#238,#239));
#495=EDGE_LOOP('',(#240,#241,#242,#243));
#496=EDGE_LOOP('',(#244,#245,#246,#247));
#497=EDGE_LOOP('',(#248,#249,#250,#251));
#498=EDGE_LOOP('',(#252,#253,#254,#255));
#499=EDGE_LOOP('',(#256,#257,#258,#259));
#500=EDGE_LOOP('',(#260,#261,#262,#263));
#501=EDGE_LOOP('',(#264,#265,#266,#267));
#502=EDGE_LOOP('',(#268,#269,#270,#271));
#503=EDGE_LOOP('',(#272,#273,#274,#275));
#504=EDGE_LOOP('',(#276,#277,#278,#279));
#505=EDGE_LOOP('',(#280,#281,#282,#283));
#506=EDGE_LOOP('',(#284,#285,#286,#287));
#507=EDGE_LOOP('',(#288,#289,#290,#291));
#508=EDGE_LOOP('',(#292,#293,#294,#295));
#509=FACE_BOUND('',#457,.T.);
#510=FACE_BOUND('',#458,.T.);
#511=FACE_BOUND('',#459,.T.);
#512=FACE_BOUND('',#460,.T.);
#513=FACE_BOUND('',#461,.T.);
#514=FACE_BOUND('',#462,.T.);
#515=FACE_BOUND('',#463,.T.);
#516=FACE_BOUND('',#464,.T.);
#517=FACE_BOUND('',#465,.T.);
#518=FACE_BOUND('',#466,.T.);
#519=FACE_BOUND('',#467,.T.);
#520=FACE_BOUND('',#468,.T.);
#521=FACE_BOUND('',#469,.T.);
#522=FACE_BOUND('',#470,.T.);
#523=FACE_BOUND('',#471,.T.);
#524=FACE_BOUND('',#472,.T.);
#525=FACE_BOUND('',#473,.T.);
#526=FACE_BOUND('',#474,.T.);
#527=FACE_BOUND('',#475,.T.);
#528=FACE_BOUND('',#476,.T.);
#529=FACE_BOUND('',#477,.T.);
#530=FACE_BOUND('',#478,.T.);
#531=FACE_BOUND('',#479,.T.);
#532=FACE_BOUND('',#480,.T.);
#533=FACE_BOUND('',#481,.T.);
#534=FACE_BOUND('',#482,.T.);
#535=FACE_BOUND('',#483,.T.);
#536=FACE_BOUND('',#484,.T.);
#537=FACE_BOUND('',#485,.T.);
#538=FACE_BOUND('',#486,.T.);
#539=FACE_BOUND('',#487,.T.);
#540=FACE_BOUND('',#488,.T.);
#541=FACE_BOUND('',#489,.T.);
#542=FACE_BOUND('',#490,.T.);
#543=FACE_BOUND('',#491,.T.);
#544=FACE_BOUND('',#492,.T.);
#545=FACE_BOUND('',#493,.T.);
#546=FACE_BOUND('',#494,.T.);
#547=FACE_BOUND('',#495,.T.);
#548=FACE_BOUND('',#496,.T.);
#549=FACE_BOUND('',#497,.T.);
#550=FACE_BOUND('',#498,.T.);
#551=FACE_BOUND('',#499,.T.);
#552=FACE_BOUND('',#500,.T.);
#553=FACE_BOUND('',#501,.T.);
#554=FACE_BOUND('',#502,.T.);
#555=FACE_BOUND('',#503,.T.);
#556=FACE_BOUND('',#504,.T.);
#557=FACE_BOUND('',#505,.T.);
#558=FACE_BOUND('',#506,.T.);
#559=FACE_BOUND('',#507,.T.);
#560=FACE_BOUND('',#508,.T.);
#561=PLANE('',#638);
#562=PLANE('',#645);
#563=PLANE('',#648);
#564=PLANE('',#652);
#565=PLANE('',#656);
#566=PLANE('',#660);
#567=PLANE('',#667);
#568=PLANE('',#669);
#569=PLANE('',#670);
#570=PLANE('',#674);
#571=PLANE('',#679);
#572=PLANE('',#681);
#573=PLANE('',#685);
#574=PLANE('',#686);
#575=PLANE('',#687);
#576=PLANE('',#688);
#577=PLANE('',#689);
#578=PLANE('',#690);
#579=PLANE('',#691);
#580=PLANE('',#692);
#581=PLANE('',#693);
#582=PLANE('',#694);
#583=PLANE('',#695);
#584=PLANE('',#696);
#585=PLANE('',#697);
#586=PLANE('',#698);
#587=PLANE('',#699);
#588=ADVANCED_FACE('',(#509,#510,#511,#512),#561,.T.);
#589=ADVANCED_FACE('',(#513),#562,.T.);
#590=ADVANCED_FACE('',(#514),#12,.T.);
#591=ADVANCED_FACE('',(#515),#563,.T.);
#592=ADVANCED_FACE('',(#516),#13,.T.);
#593=ADVANCED_FACE('',(#517),#564,.F.);
#594=ADVANCED_FACE('',(#518),#14,.T.);
#595=ADVANCED_FACE('',(#519),#565,.F.);
#596=ADVANCED_FACE('',(#520),#15,.T.);
#597=ADVANCED_FACE('',(#521,#522,#523,#524),#566,.F.);
#598=ADVANCED_FACE('',(#525,#526),#16,.T.);
#599=ADVANCED_FACE('',(#527,#528),#567,.T.);
#600=ADVANCED_FACE('',(#529),#568,.F.);
#601=ADVANCED_FACE('',(#530),#569,.F.);
#602=ADVANCED_FACE('',(#531,#532),#17,.T.);
#603=ADVANCED_FACE('',(#533,#534),#570,.T.);
#604=ADVANCED_FACE('',(#535,#536),#18,.T.);
#605=ADVANCED_FACE('',(#537,#538),#571,.T.);
#606=ADVANCED_FACE('',(#539),#572,.F.);
#607=ADVANCED_FACE('',(#540,#541),#19,.F.);
#608=ADVANCED_FACE('',(#542,#543),#20,.F.);
#609=ADVANCED_FACE('',(#544,#545),#21,.F.);
#610=ADVANCED_FACE('',(#546),#573,.T.);
#611=ADVANCED_FACE('',(#547),#574,.F.);
#612=ADVANCED_FACE('',(#548),#575,.F.);
#613=ADVANCED_FACE('',(#549),#576,.T.);
#614=ADVANCED_FACE('',(#550),#577,.T.);
#615=ADVANCED_FACE('',(#551),#578,.T.);
#616=ADVANCED_FACE('',(#552),#579,.F.);
#617=ADVANCED_FACE('',(#553),#580,.F.);
#618=ADVANCED_FACE('',(#554),#581,.T.);
#619=ADVANCED_FACE('',(#555),#582,.T.);
#620=ADVANCED_FACE('',(#556),#583,.T.);
#621=ADVANCED_FACE('',(#557),#584,.F.);
#622=ADVANCED_FACE('',(#558),#585,.F.);
#623=ADVANCED_FACE('',(#559),#586,.T.);
#624=ADVANCED_FACE('',(#560),#587,.T.);
#625=CLOSED_SHELL('',(#588,#589,#590,#591,#592,#593,#594,#595,#596,#597,
#598,#599,#600,#601,#602,#603,#604,#605,#606,#607,#608,#609,#610,#611,#612,
#613,#614,#615,#616,#617,#618,#619,#620,#621,#622,#623,#624));
#626=STYLED_ITEM('',(#627),#634);
#627=PRESENTATION_STYLE_ASSIGNMENT((#628));
#628=SURFACE_STYLE_USAGE(.BOTH.,#629);
#629=SURFACE_SIDE_STYLE('',(#630));
#630=SURFACE_STYLE_FILL_AREA(#631);
#631=FILL_AREA_STYLE('',(#632));
#632=FILL_AREA_STYLE_COLOUR('',#633);
#633=COLOUR_RGB('',0.262745098039216,0.282352941176471,0.301960784313725);
#634=MANIFOLD_SOLID_BREP('BottomCase',#625);
#635=SHAPE_DEFINITION_REPRESENTATION(#1062,#636);
#636=SHAPE_REPRESENTATION('BottomCase',(#637),#1057);
#637=AXIS2_PLACEMENT_3D('',#882,#700,#701);
#638=AXIS2_PLACEMENT_3D('',#883,#702,#703);
#639=AXIS2_PLACEMENT_3D('',#884,#704,#705);
#640=AXIS2_PLACEMENT_3D('',#887,#706,#707);
#641=AXIS2_PLACEMENT_3D('',#891,#709,#710);
#642=AXIS2_PLACEMENT_3D('',#895,#712,#713);
#643=AXIS2_PLACEMENT_3D('',#897,#714,#715);
#644=AXIS2_PLACEMENT_3D('',#901,#717,#718);
#645=AXIS2_PLACEMENT_3D('',#928,#732,#733);
#646=AXIS2_PLACEMENT_3D('',#934,#737,#738);
#647=AXIS2_PLACEMENT_3D('',#935,#739,#740);
#648=AXIS2_PLACEMENT_3D('',#938,#742,#743);
#649=AXIS2_PLACEMENT_3D('',#942,#746,#747);
#650=AXIS2_PLACEMENT_3D('',#943,#748,#749);
#651=AXIS2_PLACEMENT_3D('',#947,#751,#752);
#652=AXIS2_PLACEMENT_3D('',#948,#753,#754);
#653=AXIS2_PLACEMENT_3D('',#955,#759,#760);
#654=AXIS2_PLACEMENT_3D('',#956,#761,#762);
#655=AXIS2_PLACEMENT_3D('',#958,#763,#764);
#656=AXIS2_PLACEMENT_3D('',#961,#766,#767);
#657=AXIS2_PLACEMENT_3D('',#968,#772,#773);
#658=AXIS2_PLACEMENT_3D('',#969,#774,#775);
#659=AXIS2_PLACEMENT_3D('',#970,#776,#777);
#660=AXIS2_PLACEMENT_3D('',#971,#778,#779);
#661=AXIS2_PLACEMENT_3D('',#972,#780,#781);
#662=AXIS2_PLACEMENT_3D('',#974,#782,#783);
#663=AXIS2_PLACEMENT_3D('',#976,#784,#785);
#664=AXIS2_PLACEMENT_3D('',#978,#786,#787);
#665=AXIS2_PLACEMENT_3D('',#979,#788,#789);
#666=AXIS2_PLACEMENT_3D('',#981,#790,#791);
#667=AXIS2_PLACEMENT_3D('',#982,#792,#793);
#668=AXIS2_PLACEMENT_3D('',#983,#794,#795);
#669=AXIS2_PLACEMENT_3D('',#985,#796,#797);
#670=AXIS2_PLACEMENT_3D('',#986,#798,#799);
#671=AXIS2_PLACEMENT_3D('',#987,#800,#801);
#672=AXIS2_PLACEMENT_3D('',#988,#802,#803);
#673=AXIS2_PLACEMENT_3D('',#989,#804,#805);
#674=AXIS2_PLACEMENT_3D('',#991,#806,#807);
#675=AXIS2_PLACEMENT_3D('',#992,#808,#809);
#676=AXIS2_PLACEMENT_3D('',#994,#810,#811);
#677=AXIS2_PLACEMENT_3D('',#995,#812,#813);
#678=AXIS2_PLACEMENT_3D('',#997,#814,#815);
#679=AXIS2_PLACEMENT_3D('',#998,#816,#817);
#680=AXIS2_PLACEMENT_3D('',#999,#818,#819);
#681=AXIS2_PLACEMENT_3D('',#1001,#820,#821);
#682=AXIS2_PLACEMENT_3D('',#1002,#822,#823);
#683=AXIS2_PLACEMENT_3D('',#1003,#824,#825);
#684=AXIS2_PLACEMENT_3D('',#1004,#826,#827);
#685=AXIS2_PLACEMENT_3D('',#1005,#828,#829);
#686=AXIS2_PLACEMENT_3D('',#1011,#833,#834);
#687=AXIS2_PLACEMENT_3D('',#1015,#837,#838);
#688=AXIS2_PLACEMENT_3D('',#1019,#841,#842);
#689=AXIS2_PLACEMENT_3D('',#1021,#844,#845);
#690=AXIS2_PLACEMENT_3D('',#1022,#846,#847);
#691=AXIS2_PLACEMENT_3D('',#1028,#851,#852);
#692=AXIS2_PLACEMENT_3D('',#1032,#855,#856);
#693=AXIS2_PLACEMENT_3D('',#1036,#859,#860);
#694=AXIS2_PLACEMENT_3D('',#1038,#862,#863);
#695=AXIS2_PLACEMENT_3D('',#1039,#864,#865);
#696=AXIS2_PLACEMENT_3D('',#1045,#869,#870);
#697=AXIS2_PLACEMENT_3D('',#1049,#873,#874);
#698=AXIS2_PLACEMENT_3D('',#1053,#877,#878);
#699=AXIS2_PLACEMENT_3D('',#1055,#880,#881);
#700=DIRECTION('',(0.,0.,1.));
#701=DIRECTION('',(1.,0.,0.));
#702=DIRECTION('',(0.,0.,1.));
#703=DIRECTION('',(1.,0.,0.));
#704=DIRECTION('',(0.,0.,1.));
#705=DIRECTION('',(1.,0.,0.));
#706=DIRECTION('',(0.,0.,1.));
#707=DIRECTION('',(1.,0.,0.));
#708=DIRECTION('',(0.,-1.,0.));
#709=DIRECTION('',(0.,0.,1.));
#710=DIRECTION('',(1.,0.,0.));
#711=DIRECTION('',(1.,0.,0.));
#712=DIRECTION('',(0.,0.,1.));
#713=DIRECTION('',(1.,0.,0.));
#714=DIRECTION('',(0.,0.,1.));
#715=DIRECTION('',(1.,0.,0.));
#716=DIRECTION('',(0.,-1.,0.));
#717=DIRECTION('',(0.,0.,1.));
#718=DIRECTION('',(1.,0.,0.));
#719=DIRECTION('',(1.,0.,0.));
#720=DIRECTION('',(0.,-1.,0.));
#721=DIRECTION('',(1.,0.,0.));
#722=DIRECTION('',(0.,-1.,0.));
#723=DIRECTION('',(1.,0.,0.));
#724=DIRECTION('',(0.,-1.,0.));
#725=DIRECTION('',(1.,0.,0.));
#726=DIRECTION('',(0.,-1.,0.));
#727=DIRECTION('',(1.,0.,0.));
#728=DIRECTION('',(0.,-1.,0.));
#729=DIRECTION('',(1.,0.,0.));
#730=DIRECTION('',(0.,-1.,0.));
#731=DIRECTION('',(1.,0.,0.));
#732=DIRECTION('',(-1.,0.,0.));
#733=DIRECTION('',(0.,0.,1.));
#734=DIRECTION('',(0.,0.,1.));
#735=DIRECTION('',(0.,-1.,0.));
#736=DIRECTION('',(0.,0.,1.));
#737=DIRECTION('',(0.,0.,1.));
#738=DIRECTION('',(1.,0.,0.));
#739=DIRECTION('',(0.,0.,1.));
#740=DIRECTION('',(1.,0.,0.));
#741=DIRECTION('',(0.,0.,1.));
#742=DIRECTION('',(0.,-1.,0.));
#743=DIRECTION('',(0.,0.,-1.));
#744=DIRECTION('',(1.,0.,0.));
#745=DIRECTION('',(0.,0.,1.));
#746=DIRECTION('',(0.,0.,1.));
#747=DIRECTION('',(1.,0.,0.));
#748=DIRECTION('',(0.,0.,1.));
#749=DIRECTION('',(1.,0.,0.));
#750=DIRECTION('',(0.,0.,1.));
#751=DIRECTION('',(0.,0.,1.));
#752=DIRECTION('',(1.,0.,0.));
#753=DIRECTION('',(-1.,0.,0.));
#754=DIRECTION('',(0.,0.,1.));
#755=DIRECTION('',(0.,-1.,0.));
#756=DIRECTION('',(0.,-1.,0.));
#757=DIRECTION('',(0.,-1.,0.));
#758=DIRECTION('',(0.,0.,1.));
#759=DIRECTION('',(0.,0.,1.));
#760=DIRECTION('',(1.,0.,0.));
#761=DIRECTION('',(0.,0.,1.));
#762=DIRECTION('',(1.,0.,0.));
#763=DIRECTION('',(0.,0.,1.));
#764=DIRECTION('',(1.,0.,0.));
#765=DIRECTION('',(0.,0.,1.));
#766=DIRECTION('',(0.,-1.,0.));
#767=DIRECTION('',(0.,0.,-1.));
#768=DIRECTION('',(1.,0.,0.));
#769=DIRECTION('',(1.,0.,0.));
#770=DIRECTION('',(1.,0.,0.));
#771=DIRECTION('',(0.,0.,1.));
#772=DIRECTION('',(0.,0.,1.));
#773=DIRECTION('',(1.,0.,0.));
#774=DIRECTION('',(0.,0.,1.));
#775=DIRECTION('',(1.,0.,0.));
#776=DIRECTION('',(0.,0.,1.));
#777=DIRECTION('',(1.,0.,0.));
#778=DIRECTION('',(0.,0.,1.));
#779=DIRECTION('',(1.,0.,0.));
#780=DIRECTION('',(0.,0.,1.));
#781=DIRECTION('',(1.,0.,0.));
#782=DIRECTION('',(0.,0.,1.));
#783=DIRECTION('',(1.,0.,0.));
#784=DIRECTION('',(0.,0.,1.));
#785=DIRECTION('',(1.,0.,0.));
#786=DIRECTION('',(0.,0.,-1.));
#787=DIRECTION('',(-1.,0.,0.));
#788=DIRECTION('',(0.,0.,1.));
#789=DIRECTION('',(1.,0.,0.));
#790=DIRECTION('',(0.,0.,1.));
#791=DIRECTION('',(1.,0.,0.));
#792=DIRECTION('',(0.,0.,1.));
#793=DIRECTION('',(1.,0.,0.));
#794=DIRECTION('',(0.,0.,-1.));
#795=DIRECTION('',(-1.,0.,0.));
#796=DIRECTION('',(0.,0.,1.));
#797=DIRECTION('',(1.,0.,0.));
#798=DIRECTION('',(0.,0.,1.));
#799=DIRECTION('',(1.,0.,0.));
#800=DIRECTION('',(0.,0.,1.));
#801=DIRECTION('',(1.,0.,0.));
#802=DIRECTION('',(0.,0.,-1.));
#803=DIRECTION('',(-1.,0.,0.));
#804=DIRECTION('',(0.,0.,1.));
#805=DIRECTION('',(1.,0.,0.));
#806=DIRECTION('',(0.,0.,1.));
#807=DIRECTION('',(1.,0.,0.));
#808=DIRECTION('',(0.,0.,-1.));
#809=DIRECTION('',(-1.,0.,0.));
#810=DIRECTION('',(0.,0.,-1.));
#811=DIRECTION('',(-1.,0.,0.));
#812=DIRECTION('',(0.,0.,1.));
#813=DIRECTION('',(1.,0.,0.));
#814=DIRECTION('',(0.,0.,1.));
#815=DIRECTION('',(1.,0.,0.));
#816=DIRECTION('',(0.,0.,1.));
#817=DIRECTION('',(1.,0.,0.));
#818=DIRECTION('',(0.,0.,-1.));
#819=DIRECTION('',(-1.,0.,0.));
#820=DIRECTION('',(0.,0.,1.));
#821=DIRECTION('',(1.,0.,0.));
#822=DIRECTION('',(0.,0.,-1.));
#823=DIRECTION('',(-1.,0.,0.));
#824=DIRECTION('',(0.,0.,-1.));
#825=DIRECTION('',(-1.,0.,0.));
#826=DIRECTION('',(0.,0.,-1.));
#827=DIRECTION('',(-1.,0.,0.));
#828=DIRECTION('',(0.,-1.,0.));
#829=DIRECTION('',(0.,0.,-1.));
#830=DIRECTION('',(0.,0.,1.));
#831=DIRECTION('',(1.,0.,0.));
#832=DIRECTION('',(0.,0.,1.));
#833=DIRECTION('',(-1.,0.,0.));
#834=DIRECTION('',(0.,0.,1.));
#835=DIRECTION('',(0.,0.,1.));
#836=DIRECTION('',(0.,-1.,0.));
#837=DIRECTION('',(0.,-1.,0.));
#838=DIRECTION('',(0.,0.,-1.));
#839=DIRECTION('',(0.,0.,1.));
#840=DIRECTION('',(1.,0.,0.));
#841=DIRECTION('',(-1.,0.,0.));
#842=DIRECTION('',(0.,0.,1.));
#843=DIRECTION('',(0.,-1.,0.));
#844=DIRECTION('',(0.,0.,1.));
#845=DIRECTION('',(1.,0.,0.));
#846=DIRECTION('',(0.,-1.,0.));
#847=DIRECTION('',(0.,0.,-1.));
#848=DIRECTION('',(0.,0.,1.));
#849=DIRECTION('',(1.,0.,0.));
#850=DIRECTION('',(0.,0.,1.));
#851=DIRECTION('',(-1.,0.,0.));
#852=DIRECTION('',(0.,0.,1.));
#853=DIRECTION('',(0.,0.,1.));
#854=DIRECTION('',(0.,-1.,0.));
#855=DIRECTION('',(0.,-1.,0.));
#856=DIRECTION('',(0.,0.,-1.));
#857=DIRECTION('',(0.,0.,1.));
#858=DIRECTION('',(1.,0.,0.));
#859=DIRECTION('',(-1.,0.,0.));
#860=DIRECTION('',(0.,0.,1.));
#861=DIRECTION('',(0.,-1.,0.));
#862=DIRECTION('',(0.,0.,1.));
#863=DIRECTION('',(1.,0.,0.));
#864=DIRECTION('',(0.,-1.,0.));
#865=DIRECTION('',(0.,0.,-1.));
#866=DIRECTION('',(0.,0.,1.));
#867=DIRECTION('',(1.,0.,0.));
#868=DIRECTION('',(0.,0.,1.));
#869=DIRECTION('',(-1.,0.,0.));
#870=DIRECTION('',(0.,0.,1.));
#871=DIRECTION('',(0.,0.,1.));
#872=DIRECTION('',(0.,-1.,0.));
#873=DIRECTION('',(0.,-1.,0.));
#874=DIRECTION('',(0.,0.,-1.));
#875=DIRECTION('',(0.,0.,1.));
#876=DIRECTION('',(1.,0.,0.));
#877=DIRECTION('',(-1.,0.,0.));
#878=DIRECTION('',(0.,0.,1.));
#879=DIRECTION('',(0.,-1.,0.));
#880=DIRECTION('',(0.,0.,1.));
#881=DIRECTION('',(1.,0.,0.));
#882=CARTESIAN_POINT('',(0.,0.,0.));
#883=CARTESIAN_POINT('',(-0.0399380319155348,-0.0201679393582,0.));
#884=CARTESIAN_POINT('',(-0.067872994665989,-0.001877005334011,0.));
#885=CARTESIAN_POINT('',(-0.0698519102617319,-0.00158736233836744,0.));
#886=CARTESIAN_POINT('',(-0.0668342004176774,-0.00016793935820004,0.));
#887=CARTESIAN_POINT('',(-0.0679380319155348,-0.00216793935820003,0.));
#888=CARTESIAN_POINT('',(-0.0699380319155348,-0.00216793935820003,0.));
#889=CARTESIAN_POINT('',(-0.0699380319155348,-0.0201679393582,0.));
#890=CARTESIAN_POINT('',(-0.0699380319155348,-0.0381679393582001,0.));
#891=CARTESIAN_POINT('',(-0.0679380319155348,-0.0381679393582001,0.));
#892=CARTESIAN_POINT('',(-0.0679380319155348,-0.0401679393582,0.));
#893=CARTESIAN_POINT('',(-0.0399380319155348,-0.0401679393582,0.));
#894=CARTESIAN_POINT('',(-0.0119380319155348,-0.0401679393582,0.));
#895=CARTESIAN_POINT('',(-0.0119380319155348,-0.0381679393582001,0.));
#896=CARTESIAN_POINT('',(-0.00995923773478756,-0.0384584106825005,0.));
#897=CARTESIAN_POINT('',(-0.011872885445771,-0.03787707391414,0.));
#898=CARTESIAN_POINT('',(-0.0099380319155348,-0.0373707718140728,0.));
#899=CARTESIAN_POINT('',(-0.0099380319155348,-0.0201679393582,0.));
#900=CARTESIAN_POINT('',(-0.0099380319155348,-0.00238330743407825,0.));
#901=CARTESIAN_POINT('',(-0.011872885445771,-0.001877005334011,0.));
#902=CARTESIAN_POINT('',(-0.0129116796940826,-0.00016793935820004,0.));
#903=CARTESIAN_POINT('',(-0.0399380319155348,-0.00016793935820004,0.));
#904=CARTESIAN_POINT('',(-0.0682207831926644,-0.00897678220644593,0.));
#905=CARTESIAN_POINT('',(-0.0682207831926644,-0.00441382545977831,0.));
#906=CARTESIAN_POINT('',(-0.0682207831926644,-0.0135397389531136,0.));
#907=CARTESIAN_POINT('',(-0.0673413770785555,-0.00441382545977831,0.));
#908=CARTESIAN_POINT('',(-0.0664619709644467,-0.00441382545977831,0.));
#909=CARTESIAN_POINT('',(-0.0664619709644467,-0.00897678220644593,0.));
#910=CARTESIAN_POINT('',(-0.0664619709644467,-0.0135397389531136,0.));
#911=CARTESIAN_POINT('',(-0.0673413770785555,-0.0135397389531136,0.));
#912=CARTESIAN_POINT('',(-0.0588957589864731,-0.00233975442824886,0.));
#913=CARTESIAN_POINT('',(-0.0588957589864731,-0.00155990372877568,0.));
#914=CARTESIAN_POINT('',(-0.0588957589864731,-0.00311960512772202,0.));
#915=CARTESIAN_POINT('',(-0.0540507293120027,-0.00155990372877568,0.));
#916=CARTESIAN_POINT('',(-0.0492056996375322,-0.00155990372877568,0.));
#917=CARTESIAN_POINT('',(-0.0492056996375322,-0.00233975442824886,0.));
#918=CARTESIAN_POINT('',(-0.0492056996375322,-0.00311960512772202,0.));
#919=CARTESIAN_POINT('',(-0.0540507293120027,-0.00311960512772202,0.));
#920=CARTESIAN_POINT('',(-0.0435596384853125,-0.0325405783951283,0.));
#921=CARTESIAN_POINT('',(-0.0435596384853125,-0.0315782092511654,0.));
#922=CARTESIAN_POINT('',(-0.0435596384853125,-0.0335029475390911,0.));
#923=CARTESIAN_POINT('',(-0.0364248330518603,-0.0315782092511654,0.));
#924=CARTESIAN_POINT('',(-0.0292900276184082,-0.0315782092511654,0.));
#925=CARTESIAN_POINT('',(-0.0292900276184082,-0.0325405783951283,0.));
#926=CARTESIAN_POINT('',(-0.0292900276184082,-0.0335029475390911,0.));
#927=CARTESIAN_POINT('',(-0.0364248330518603,-0.0335029475390911,0.));
#928=CARTESIAN_POINT('',(-0.0699380319155348,-0.0201679393582,-0.0015));
#929=CARTESIAN_POINT('',(-0.0699380319155348,-0.00216793935820003,-0.0015));
#930=CARTESIAN_POINT('',(-0.0699380319155348,-0.00216793935820003,-0.0015));
#931=CARTESIAN_POINT('',(-0.0699380319155348,-0.0201679393582,-0.0015));
#932=CARTESIAN_POINT('',(-0.0699380319155348,-0.0381679393582001,-0.0015));
#933=CARTESIAN_POINT('',(-0.0699380319155348,-0.0381679393582001,-0.0015));
#934=CARTESIAN_POINT('',(-0.0679380319155348,-0.0381679393582001,-0.0015));
#935=CARTESIAN_POINT('',(-0.0679380319155348,-0.0381679393582001,-0.0015));
#936=CARTESIAN_POINT('',(-0.0679380319155348,-0.0401679393582,-0.0015));
#937=CARTESIAN_POINT('',(-0.0679380319155348,-0.0401679393582,-0.0015));
#938=CARTESIAN_POINT('',(-0.0399380319155348,-0.0401679393582,-0.0015));
#939=CARTESIAN_POINT('',(-0.0399380319155348,-0.0401679393582,-0.0015));
#940=CARTESIAN_POINT('',(-0.0119380319155348,-0.0401679393582,-0.0015));
#941=CARTESIAN_POINT('',(-0.0119380319155348,-0.0401679393582,-0.0015));
#942=CARTESIAN_POINT('',(-0.0119380319155348,-0.0381679393582001,-0.0015));
#943=CARTESIAN_POINT('',(-0.0119380319155348,-0.0381679393582001,-0.0015));
#944=CARTESIAN_POINT('',(-0.0099380319155348,-0.0381679393582001,-0.0015));
#945=CARTESIAN_POINT('',(-0.0099380319155348,-0.0381679393582001,-0.0015));
#946=CARTESIAN_POINT('',(-0.0099380319155348,-0.0381679393582001,0.));
#947=CARTESIAN_POINT('',(-0.0119380319155348,-0.0381679393582001,0.));
#948=CARTESIAN_POINT('',(-0.0099380319155348,-0.0201679393582,-0.0015));
#949=CARTESIAN_POINT('',(-0.0099380319155348,-0.0201679393582,0.));
#950=CARTESIAN_POINT('',(-0.0099380319155348,-0.00216793935820004,0.));
#951=CARTESIAN_POINT('',(-0.0099380319155348,-0.0201679393582,0.));
#952=CARTESIAN_POINT('',(-0.0099380319155348,-0.0201679393582,-0.0015));
#953=CARTESIAN_POINT('',(-0.0099380319155348,-0.00216793935820004,-0.0015));
#954=CARTESIAN_POINT('',(-0.0099380319155348,-0.00216793935820004,-0.0015));
#955=CARTESIAN_POINT('',(-0.0119380319155348,-0.00216793935820004,-0.0015));
#956=CARTESIAN_POINT('',(-0.0119380319155348,-0.00216793935820004,0.));
#957=CARTESIAN_POINT('',(-0.0119380319155348,-0.000167939358200038,0.));
#958=CARTESIAN_POINT('',(-0.0119380319155348,-0.00216793935820004,-0.0015));
#959=CARTESIAN_POINT('',(-0.0119380319155348,-0.000167939358200038,-0.0015));
#960=CARTESIAN_POINT('',(-0.0119380319155348,-0.000167939358200038,-0.0015));
#961=CARTESIAN_POINT('',(-0.0399380319155348,-0.00016793935820004,-0.0015));
#962=CARTESIAN_POINT('',(-0.0399380319155348,-0.00016793935820004,0.));
#963=CARTESIAN_POINT('',(-0.0679380319155348,-0.00016793935820004,0.));
#964=CARTESIAN_POINT('',(-0.0399380319155348,-0.00016793935820004,0.));
#965=CARTESIAN_POINT('',(-0.0399380319155348,-0.00016793935820004,-0.0015));
#966=CARTESIAN_POINT('',(-0.0679380319155348,-0.00016793935820004,-0.0015));
#967=CARTESIAN_POINT('',(-0.0679380319155348,-0.00016793935820004,-0.0015));
#968=CARTESIAN_POINT('',(-0.0679380319155348,-0.00216793935820003,-0.0015));
#969=CARTESIAN_POINT('',(-0.0679380319155348,-0.00216793935820003,0.));
#970=CARTESIAN_POINT('',(-0.0679380319155348,-0.00216793935820003,-0.0015));
#971=CARTESIAN_POINT('',(-0.0399380319155348,-0.0201679393582,-0.0015));
#972=CARTESIAN_POINT('',(-0.067872994665989,-0.001877005334011,-0.0015));
#973=CARTESIAN_POINT('',(-0.066622994665989,-0.001877005334011,-0.0015));
#974=CARTESIAN_POINT('',(-0.011872885445771,-0.03787707391414,-0.0015));
#975=CARTESIAN_POINT('',(-0.010622885445771,-0.03787707391414,-0.0015));
#976=CARTESIAN_POINT('',(-0.011872885445771,-0.001877005334011,-0.0015));
#977=CARTESIAN_POINT('',(-0.010622885445771,-0.001877005334011,-0.0015));
#978=CARTESIAN_POINT('',(-0.011872885445771,-0.001877005334011,0.0016));
#979=CARTESIAN_POINT('',(-0.011872885445771,-0.001877005334011,0.0016));
#980=CARTESIAN_POINT('',(-0.009872885445771,-0.001877005334011,0.0016));
#981=CARTESIAN_POINT('',(-0.011872885445771,-0.001877005334011,0.));
#982=CARTESIAN_POINT('',(-0.0399054586806529,-0.0200224723461055,0.0016));
#983=CARTESIAN_POINT('',(-0.011872885445771,-0.001877005334011,0.0016));
#984=CARTESIAN_POINT('',(-0.013122885445771,-0.001877005334011,0.0016));
#985=CARTESIAN_POINT('',(-0.0399054586806529,-0.0200224723461055,0.));
#986=CARTESIAN_POINT('',(-0.0399054586806529,-0.0200224723461055,0.));
#987=CARTESIAN_POINT('',(-0.011872885445771,-0.03787707391414,0.));
#988=CARTESIAN_POINT('',(-0.011872885445771,-0.03787707391414,0.0016));
#989=CARTESIAN_POINT('',(-0.011872885445771,-0.03787707391414,0.0016));
#990=CARTESIAN_POINT('',(-0.009872885445771,-0.03787707391414,0.0016));
#991=CARTESIAN_POINT('',(-0.0399054586806529,-0.0200224723461055,0.0016));
#992=CARTESIAN_POINT('',(-0.011872885445771,-0.03787707391414,0.0016));
#993=CARTESIAN_POINT('',(-0.013122885445771,-0.03787707391414,0.0016));
#994=CARTESIAN_POINT('',(-0.067872994665989,-0.001877005334011,0.0016));
#995=CARTESIAN_POINT('',(-0.067872994665989,-0.001877005334011,0.0016));
#996=CARTESIAN_POINT('',(-0.065872994665989,-0.001877005334011,0.0016));
#997=CARTESIAN_POINT('',(-0.067872994665989,-0.001877005334011,0.));
#998=CARTESIAN_POINT('',(-0.0399054586806529,-0.0200224723461055,0.0016));
#999=CARTESIAN_POINT('',(-0.067872994665989,-0.001877005334011,0.0016));
#1000=CARTESIAN_POINT('',(-0.069122994665989,-0.001877005334011,0.0016));
#1001=CARTESIAN_POINT('',(-0.0399054586806529,-0.0200224723461055,0.));
#1002=CARTESIAN_POINT('',(-0.067872994665989,-0.001877005334011,0.003200050800102));
#1003=CARTESIAN_POINT('',(-0.011872885445771,-0.03787707391414,0.003200050800102));
#1004=CARTESIAN_POINT('',(-0.011872885445771,-0.001877005334011,0.003200050800102));
#1005=CARTESIAN_POINT('',(-0.0673413770785555,-0.00441382545977831,-0.0005));
#1006=CARTESIAN_POINT('',(-0.0682207831926644,-0.00441382545977831,-0.0005));
#1007=CARTESIAN_POINT('',(-0.0682207831926644,-0.00441382545977831,-0.0005));
#1008=CARTESIAN_POINT('',(-0.0673413770785555,-0.00441382545977831,-0.0005));
#1009=CARTESIAN_POINT('',(-0.0664619709644467,-0.00441382545977831,-0.0005));
#1010=CARTESIAN_POINT('',(-0.0664619709644467,-0.00441382545977831,-0.0005));
#1011=CARTESIAN_POINT('',(-0.0682207831926644,-0.00897678220644593,-0.0005));
#1012=CARTESIAN_POINT('',(-0.0682207831926644,-0.0135397389531136,-0.0005));
#1013=CARTESIAN_POINT('',(-0.0682207831926644,-0.0135397389531136,-0.0005));
#1014=CARTESIAN_POINT('',(-0.0682207831926644,-0.00897678220644593,-0.0005));
#1015=CARTESIAN_POINT('',(-0.0673413770785555,-0.0135397389531136,-0.0005));
#1016=CARTESIAN_POINT('',(-0.0664619709644467,-0.0135397389531136,-0.0005));
#1017=CARTESIAN_POINT('',(-0.0664619709644467,-0.0135397389531136,-0.0005));
#1018=CARTESIAN_POINT('',(-0.0673413770785555,-0.0135397389531136,-0.0005));
#1019=CARTESIAN_POINT('',(-0.0664619709644467,-0.00897678220644593,-0.0005));
#1020=CARTESIAN_POINT('',(-0.0664619709644467,-0.00897678220644593,-0.0005));
#1021=CARTESIAN_POINT('',(-0.0399380319155348,-0.0201679393582,-0.0005));
#1022=CARTESIAN_POINT('',(-0.0540507293120027,-0.00155990372877568,-0.0005));
#1023=CARTESIAN_POINT('',(-0.0588957589864731,-0.00155990372877568,-0.0005));
#1024=CARTESIAN_POINT('',(-0.0588957589864731,-0.00155990372877568,-0.0005));
#1025=CARTESIAN_POINT('',(-0.0540507293120027,-0.00155990372877568,-0.0005));
#1026=CARTESIAN_POINT('',(-0.0492056996375322,-0.00155990372877568,-0.0005));
#1027=CARTESIAN_POINT('',(-0.0492056996375322,-0.00155990372877568,-0.0005));
#1028=CARTESIAN_POINT('',(-0.0588957589864731,-0.00233975442824886,-0.0005));
#1029=CARTESIAN_POINT('',(-0.0588957589864731,-0.00311960512772202,-0.0005));
#1030=CARTESIAN_POINT('',(-0.0588957589864731,-0.00311960512772202,-0.0005));
#1031=CARTESIAN_POINT('',(-0.0588957589864731,-0.00233975442824886,-0.0005));
#1032=CARTESIAN_POINT('',(-0.0540507293120027,-0.00311960512772202,-0.0005));
#1033=CARTESIAN_POINT('',(-0.0492056996375322,-0.00311960512772202,-0.0005));
#1034=CARTESIAN_POINT('',(-0.0492056996375322,-0.00311960512772202,-0.0005));
#1035=CARTESIAN_POINT('',(-0.0540507293120027,-0.00311960512772202,-0.0005));
#1036=CARTESIAN_POINT('',(-0.0492056996375322,-0.00233975442824886,-0.0005));
#1037=CARTESIAN_POINT('',(-0.0492056996375322,-0.00233975442824886,-0.0005));
#1038=CARTESIAN_POINT('',(-0.0399380319155348,-0.0201679393582,-0.0005));
#1039=CARTESIAN_POINT('',(-0.0364248330518603,-0.0315782092511654,-0.0005));
#1040=CARTESIAN_POINT('',(-0.0435596384853125,-0.0315782092511654,-0.0005));
#1041=CARTESIAN_POINT('',(-0.0435596384853125,-0.0315782092511654,-0.0005));
#1042=CARTESIAN_POINT('',(-0.0364248330518603,-0.0315782092511654,-0.0005));
#1043=CARTESIAN_POINT('',(-0.0292900276184082,-0.0315782092511654,-0.0005));
#1044=CARTESIAN_POINT('',(-0.0292900276184082,-0.0315782092511654,-0.0005));
#1045=CARTESIAN_POINT('',(-0.0435596384853125,-0.0325405783951283,-0.0005));
#1046=CARTESIAN_POINT('',(-0.0435596384853125,-0.0335029475390911,-0.0005));
#1047=CARTESIAN_POINT('',(-0.0435596384853125,-0.0335029475390911,-0.0005));
#1048=CARTESIAN_POINT('',(-0.0435596384853125,-0.0325405783951283,-0.0005));
#1049=CARTESIAN_POINT('',(-0.0364248330518603,-0.0335029475390911,-0.0005));
#1050=CARTESIAN_POINT('',(-0.0292900276184082,-0.0335029475390911,-0.0005));
#1051=CARTESIAN_POINT('',(-0.0292900276184082,-0.0335029475390911,-0.0005));
#1052=CARTESIAN_POINT('',(-0.0364248330518603,-0.0335029475390911,-0.0005));
#1053=CARTESIAN_POINT('',(-0.0292900276184082,-0.0325405783951283,-0.0005));
#1054=CARTESIAN_POINT('',(-0.0292900276184082,-0.0325405783951283,-0.0005));
#1055=CARTESIAN_POINT('',(-0.0399380319155348,-0.0201679393582,-0.0005));
#1056=MECHANICAL_DESIGN_GEOMETRIC_PRESENTATION_REPRESENTATION('',(#626),
#1057);
#1057=(
GEOMETRIC_REPRESENTATION_CONTEXT(3)
GLOBAL_UNCERTAINTY_ASSIGNED_CONTEXT((#1058))
GLOBAL_UNIT_ASSIGNED_CONTEXT((#1061,#1060,#1059))
REPRESENTATION_CONTEXT('BottomCase','TOP_LEVEL_ASSEMBLY_PART')
);
#1058=UNCERTAINTY_MEASURE_WITH_UNIT(LENGTH_MEASURE(1.E-8),#1061,
'DISTANCE_ACCURACY_VALUE','Maximum Tolerance applied to model');
#1059=(
NAMED_UNIT(*)
SI_UNIT($,.STERADIAN.)
SOLID_ANGLE_UNIT()
);
#1060=(
NAMED_UNIT(*)
PLANE_ANGLE_UNIT()
SI_UNIT($,.RADIAN.)
);
#1061=(
LENGTH_UNIT()
NAMED_UNIT(*)
SI_UNIT($,.METRE.)
);
#1062=PRODUCT_DEFINITION_SHAPE('','',#1063);
#1063=PRODUCT_DEFINITION('','',#1065,#1064);
#1064=PRODUCT_DEFINITION_CONTEXT('',#1071,'design');
#1065=PRODUCT_DEFINITION_FORMATION_WITH_SPECIFIED_SOURCE('','',#1067,
 .NOT_KNOWN.);
#1066=PRODUCT_RELATED_PRODUCT_CATEGORY('','',(#1067));
#1067=PRODUCT('BottomCase','BottomCase','BottomCase',(#1069));
#1068=PRODUCT_CATEGORY('','');
#1069=PRODUCT_CONTEXT('',#1071,'mechanical');
#1070=APPLICATION_PROTOCOL_DEFINITION('international standard',
'ap242_managed_model_based_3d_engineering',2020,#1071);
#1071=APPLICATION_CONTEXT('managed model based 3d engineering');
ENDSEC;
END-ISO-10303-21;
